<svg xmlns="http://www.w3.org/2000/svg" width="40" height="40" viewBox="0 0 1024 1024">
    <g transform="translate(51.2, 51.2) scale(0.9)">
        <path fill="#FE7D1B"
              d="M674.934 374.77h3.733c2.601.004 5.202.012 7.803.024 3.924.018 7.847.02 11.77.02 7.254.01 14.507.073 21.76.186l2.961.043c2.526.048 5.05.126 7.574.219l2.13.04c4.643.227 7.093 1.388 10.335 4.698 11.083 18.185 4.832 63.585 5.697 85.158a90113432.13 90113432.13 0 0 1 .432 10.795 22105.797 22105.797 0 0 0 3.612 86.329l.402 9.214.102 2.333.205 4.697a49845.32 49845.32 0 0 1 8.58 206.936l.95 23.952c.43 10.797.855 21.594 1.278 32.39.157 3.993.315 7.985.474 11.977.184 4.633.365 9.267.545 13.9l.198 5.019c.177 4.41.338 8.822.465 13.235.04 1.394.085 2.789.134 4.183.067 2.039.113 4.077.152 6.116l.089 3.523c-.371 3.822-1.17 6.056-3.315 9.243-5.149 3.366-9.563 3.426-15.498 3.38l-2.891.014c-3.21.012-6.419.003-9.628-.006-2.319.004-4.638.01-6.957.016-5.713.013-11.426.012-17.139.005-6.843-.007-13.685.002-20.528.013-13.408.02-26.815.022-40.222.017a39877.96 39877.96 0 0 0-47.028.007c-22.04.01-44.079.016-66.118.008l-2.518-.001-20.247-.008c-26.33-.01-52.66-.002-78.99.022a79096.063 79096.063 0 0 1-100.526.029c-11.726-.002-23.453.005-35.179.019-13.331.015-26.663.015-39.994-.002-6.806-.01-13.612-.012-20.418.004-6.225.014-12.45.01-18.674-.01-2.257-.004-4.514 0-6.771.01-3.059.013-6.117.001-9.176-.016l-2.679.029c-5.392-.065-8.607-.838-12.819-4.53-2.397-3.272-2.253-6.354-2.26-10.332l-.021-3.971.007-4.374-.016-4.638c-.014-4.255-.016-8.51-.015-12.765-.002-4.586-.015-9.173-.027-13.759-.022-10.03-.03-20.062-.035-30.092-.004-6.261-.01-12.522-.017-18.783-.02-17.329-.036-34.657-.04-51.985v-3.362l-.001-6.746v-3.382l-.001-3.387c-.004-18.118-.03-36.237-.068-54.355-.038-18.593-.057-37.186-.058-55.78 0-10.443-.009-20.886-.038-31.328-.024-8.89-.032-17.781-.017-26.672.008-4.537.007-9.074-.016-13.612-.02-4.153-.018-8.305.003-12.457.003-1.504-.002-3.007-.016-4.51-.112-12.641-.112-12.641 3.05-16.58 3.426-2.822 5.696-3.68 10.207-3.583 8.515 1.622 16.26 9.54 23.06 14.7a466.73 466.73 0 0 0 14.631 10.628 851.556 851.556 0 0 1 18.375 13.25c5.98 4.426 11.981 8.814 18.045 13.124a2168.97 2168.97 0 0 1 14.018 10.063l2.297 1.66 4.639 3.355a350268.801 350268.801 0 0 1 18.064 13.048l27.001 19.501 4.486 3.238c3.83 2.764 7.655 5.533 11.474 8.312l2.367 1.719c1.462 1.061 2.924 2.125 4.383 3.19 4.21 3.054 8.488 5.984 12.819 8.863l3.252 2.163L381 650l.004-1.839c.038-14.782.097-29.564.18-44.345.04-7.149.072-14.297.087-21.446.013-6.232.04-12.464.084-18.696.022-3.299.036-6.597.037-9.896.002-3.687.03-7.373.062-11.06l-.015-3.295c.087-6.35.8-10.244 4.561-15.423 2.798-2.299 6.105-2.616 9.7-2.484 5.105 1.075 9.143 4.48 13.3 7.484l1.962 1.398a1469.63 1469.63 0 0 1 13.68 9.885c3.016 2.196 6.045 4.376 9.074 6.555a2085.356 2085.356 0 0 1 21.034 15.35 1319.739 1319.739 0 0 0 19.676 14.265 1966.99 1966.99 0 0 1 12.324 8.86l2.297 1.66 4.639 3.354a350268.801 350268.801 0 0 1 18.064 13.048l6.75 4.875 2.25 1.625 4.502 3.252c3.736 2.699 7.473 5.396 11.213 8.088a2226.282 2226.282 0 0 1 23.097 16.847 996.83 996.83 0 0 0 20.097 14.472 1337.571 1337.571 0 0 1 15.279 10.904l2.235 1.617c3.093 2.238 6.184 4.479 9.275 6.72l7.302 5.288 2.238 1.624 2.121 1.536 1.843 1.336c2.65 1.864 5.35 3.647 8.048 5.441 1.858-16.583 2.93-33.205 3.96-49.855.243-3.937.492-7.874.74-11.81.425-6.74.848-13.48 1.269-20.22a54321.615 54321.615 0 0 1 3.518-55.75c2.193-34.607 4.467-69.208 6.817-103.804l.772-11.41c.4-5.908.802-11.817 1.206-17.726l.435-6.4c.196-2.887.395-5.775.594-8.663l.168-2.499c.273-3.916.587-7.827.97-11.733l.21-2.155c.611-3.541 1.852-5.424 4.341-7.975 6.939-2.682 14.627-2.276 21.934-2.23Z"/>
        />
    </g>
</svg>



